<!--
  GENERATED FILE. Do not hand-edit.
  Run: node scripts/design-system/extract-brand-standalones.mjs
  Source: resources/views/design-system/partials/logo-sprite.blade.php #lg-stacked

  Paths are copied byte for byte from the source; only the container changed.
  The theme properties lg-ink / lg-sub are resolved to #ffffff / #a9c7ff, because a CSS
  custom property does not cross an <img> boundary.
-->
<svg xmlns="http://www.w3.org/2000/svg" viewBox="0 0 2887 1500" role="img" aria-label="AI Challenge Serving Islamic Content">
<title>AI Challenge Serving Islamic Content</title>
<defs>
  <radialGradient id="atic-mark-grad" cx="50%" cy="50%" r="52%">
    <stop offset="0%" stop-color="#2FEEC3"/><stop offset="55%" stop-color="#3FA8E0"/><stop offset="100%" stop-color="#6251EB"/>
  </radialGradient>
  <linearGradient id="atic-line-grad" x1="0" y1="0" x2="1" y2="0">
    <stop offset="0%" stop-color="#6251EB"/><stop offset="100%" stop-color="#2FEEC3"/>
  </linearGradient>
</defs>
<g><g transform="translate(14,67)" fill="#ffffff"><g transform="translate(0.000000,630.000000) scale(0.100000,-0.100000)"><path d="M5450 6174 c-56 -69 -100 -127 -98 -129 2 -3 31 -22 64 -43 33 -22
89 -66 125 -100 l65 -61 95 102 c52 56 100 110 107 119 11 14 5 25 -54 87 -58
62 -172 151 -194 151 -4 0 -53 -57 -110 -126z M1068 6173 c-37 -54 -103 -142
-147 -195 l-81 -97 26 -123 c44 -217 65 -456 84 -973 11 -305 21 -418 45 -509
33 -125 104 -225 195 -270 103 -52 62 -51 1420 -51 1182 0 1272 1 1370 18 278
49 448 154 534 328 67 139 91 309 62 441 -42 189 -200 339 -390 370 -47 8
-128 8 -298 -1 -347 -18 -1539 -32 -1754 -21 -259 13 -383 47 -392 107 -4 24
-44 10 423 148 548 163 726 251 785 386 38 90 68 309 41 309 -5 0 -33 -16 -62
-36 -79 -53 -357 -189 -738 -359 -296 -133 -340 -156 -390 -202 -94 -85 -141
-206 -141 -363 0 -168 66 -238 270 -286 106 -24 1008 -32 1545 -13 209 8 459
14 555 14 160 0 181 -2 240 -24 176 -65 299 -204 233 -263 -25 -22 -99 -45
-199 -63 -179 -31 -436 -36 -1674 -33 l-1225 3 -60 24 c-82 32 -145 97 -170
176 -19 56 -20 82 -15 405 11 749 3 1250 -19 1250 -4 0 -37 -44 -73 -97z
M6671 6168 c-38 -57 -96 -134 -128 -171 -32 -38 -66 -79 -77 -92 -18 -22 -18
-26 13 -191 89 -489 159 -973 164 -1143 l2 -85 -32 -21 c-50 -35 -143 -50
-298 -50 -118 0 -148 4 -191 21 -102 42 -170 119 -218 246 -24 64 -102 353
-200 742 -31 120 -58 221 -60 223 -3 3 -32 -48 -64 -113 -33 -66 -84 -157
-114 -204 l-54 -86 33 -69 c73 -158 173 -480 176 -570 2 -36 -3 -49 -28 -75
-95 -100 -336 -156 -568 -131 -170 19 -225 63 -242 196 -4 38 -11 55 -21 55
-8 0 -14 -3 -14 -7 0 -5 -7 -73 -16 -153 -26 -238 -4 -359 83 -451 78 -83 210
-119 370 -99 238 30 375 153 448 405 14 49 28 122 32 163 3 40 9 75 13 77 4 2
13 -28 20 -68 55 -317 202 -513 418 -558 70 -14 217 -6 289 16 105 32 200 168
281 405 50 145 77 262 98 420 14 106 15 179 9 473 -3 192 -9 355 -12 362 -3
10 25 29 87 60 72 36 90 49 86 63 -28 85 -196 507 -204 510 -6 2 -42 -43 -81
-100z M7308 6173 c-37 -54 -103 -141 -147 -194 l-80 -96 19 -149 c57 -452 117
-1197 127 -1596 3 -131 10 -238 14 -238 8 0 108 306 133 405 44 177 60 484 51
970 l-7 380 86 42 c47 24 86 49 85 55 -1 26 -194 511 -205 515 -5 2 -40 -41
-76 -94z M9268 5816 c-255 -92 -501 -456 -549 -811 -22 -172 3 -286 80 -359
77 -71 107 -77 456 -86 165 -5 314 -11 330 -15 94 -21 110 -47 75 -120 -65
-134 -261 -233 -550 -277 -57 -9 -188 -13 -395 -13 -287 1 -316 3 -388 23
-250 70 -373 212 -385 445 -7 140 24 332 73 460 5 13 2 17 -13 17 -42 0 -139
-317 -162 -529 -52 -470 117 -773 477 -858 114 -26 579 -26 702 0 204 44 343
117 471 246 142 143 218 321 241 562 19 202 -15 334 -101 394 -71 49 -117 57
-390 65 -140 5 -275 13 -298 20 -157 39 -190 126 -100 260 70 106 202 202 333
243 94 29 283 31 363 4 57 -20 112 -68 112 -98 0 -10 6 -19 13 -19 30 0 49
191 27 272 -19 66 -70 130 -130 163 -78 42 -196 46 -292 11z M13378 5763 c-35
-42 -80 -97 -100 -122 -43 -52 -47 -67 -18 -76 29 -9 129 -85 183 -139 l47
-48 76 81 c42 45 81 81 86 81 15 0 132 -95 163 -132 l27 -31 101 108 c56 59
105 113 109 120 11 18 -93 128 -175 186 -39 27 -73 49 -77 49 -6 0 -108 -119
-131 -153 -4 -5 -36 16 -73 47 -60 51 -138 106 -151 106 -2 0 -33 -34 -67 -77z
M10697 5517 c-37 -72 -87 -163 -112 -201 l-45 -69 49 -116 c89 -211 171 -498
158 -553 -11 -44 -46 -77 -120 -112 -101 -49 -204 -68 -372 -69 -254 -1 -345
55 -345 216 0 42 -24 53 -33 15 -16 -65 -29 -244 -25 -337 4 -89 9 -116 33
-169 64 -142 210 -206 418 -183 148 17 230 56 321 151 90 94 143 229 174 445
6 45 10 54 14 35 68 -293 109 -391 205 -487 108 -108 207 -139 408 -130 164 8
280 28 420 72 201 63 327 136 605 350 80 62 163 124 186 138 l41 25 -5 -125
c-12 -309 63 -418 313 -454 85 -12 833 -11 935 2 311 38 466 162 525 419 12
52 17 119 17 220 1 157 -9 228 -48 360 -32 104 -123 330 -134 330 -5 0 -23
-33 -41 -72 -18 -40 -61 -129 -96 -197 l-64 -124 23 -16 c61 -42 182 -158 237
-226 60 -75 79 -114 66 -135 -13 -21 -89 -52 -173 -70 -168 -36 -296 -42 -802
-37 -504 4 -545 7 -626 50 -32 17 -84 71 -84 88 0 19 118 48 263 64 41 5 60
11 64 23 3 9 29 76 57 148 l52 132 -71 7 c-177 16 -312 54 -693 191 -271 98
-369 124 -472 124 -174 0 -262 -98 -355 -393 -37 -116 -39 -156 -6 -107 89
136 219 183 402 145 46 -9 163 -42 259 -72 234 -74 390 -118 478 -133 39 -7
72 -16 72 -20 0 -12 -353 -138 -458 -165 -214 -53 -611 -91 -880 -83 -125 4
-143 6 -200 33 -76 34 -139 100 -182 190 -30 64 -88 269 -207 740 -36 143 -68
263 -72 267 -4 4 -37 -52 -74 -125z M370 5066 c-65 -17 -110 -48 -174 -117
-134 -145 -206 -410 -152 -567 23 -67 90 -135 157 -159 27 -10 49 -22 49 -28
0 -6 -13 -18 -29 -28 -46 -27 -144 -138 -177 -202 -61 -116 -54 -131 30 -66
159 121 362 216 580 271 61 15 114 34 117 42 4 7 19 47 34 88 15 41 41 99 57
128 17 29 28 55 25 58 -3 3 -31 -2 -63 -10 -193 -50 -490 -59 -595 -18 -103
41 -158 122 -129 192 20 49 87 110 158 143 84 39 207 49 277 23 49 -19 105
-76 105 -107 0 -14 5 -19 18 -17 14 3 17 17 20 87 4 111 -16 170 -77 231 -66
65 -135 82 -231 56z M9213 3549 c-54 -66 -99 -126 -101 -133 -2 -7 25 -30 58
-50 33 -21 90 -66 126 -100 l65 -62 78 85 78 85 49 -36 c27 -20 69 -57 94 -82
24 -25 47 -46 51 -46 4 0 55 52 115 116 l108 116 -95 91 c-52 51 -113 102
-135 114 l-40 22 -68 -85 -68 -84 -58 53 c-32 30 -81 68 -108 85 l-51 31 -98
-120z M4558 3043 c-37 -54 -103 -142 -148 -195 l-81 -98 25 -122 c45 -222 66
-470 86 -1008 11 -301 14 -329 37 -440 44 -212 146 -316 345 -350 44 -8 360
-10 1028 -8 956 4 966 4 1047 26 252 66 348 183 391 472 7 47 9 38 9 -65 2
-141 24 -229 76 -297 34 -44 115 -99 177 -120 49 -17 786 -23 900 -8 232 31
445 148 566 313 l43 58 11 -43 c32 -118 145 -253 257 -306 l58 -27 497 -3
c533 -3 574 0 670 49 100 51 190 176 219 304 7 30 15 55 19 55 4 0 10 -17 14
-38 11 -66 60 -154 118 -208 69 -65 135 -99 257 -132 87 -23 114 -25 296 -26
185 0 207 2 297 26 299 81 506 283 579 563 27 105 30 292 6 382 -38 142 -112
239 -222 290 -54 25 -70 28 -160 27 -114 -1 -188 -24 -292 -90 -126 -80 -334
-320 -493 -571 -36 -56 -70 -103 -76 -103 -6 0 -35 17 -65 38 -65 45 -114 115
-136 194 -21 76 -40 74 -62 -7 -39 -139 -116 -229 -230 -267 -64 -22 -79 -23
-596 -26 -523 -4 -881 3 -904 17 -8 5 -6 22 8 63 41 120 52 297 27 419 -31
145 -123 267 -233 310 -46 18 -78 23 -153 23 -163 0 -265 -51 -431 -214 -104
-103 -204 -227 -309 -385 -29 -44 -57 -84 -63 -90 -13 -13 -14 -14 73 135 151
261 227 437 249 577 14 92 13 258 -4 668 -7 182 -14 332 -14 333 -3 13 -27
-15 -81 -96 -35 -51 -101 -138 -147 -193 l-84 -100 15 -77 c60 -314 82 -838
43 -1002 -22 -96 -71 -216 -127 -314 l-44 -76 -81 0 c-155 0 -268 37 -319 103
-43 57 -56 109 -56 233 0 102 -2 114 -18 114 -13 0 -21 -17 -35 -81 -51 -224
-119 -299 -316 -347 -58 -14 -188 -16 -1061 -20 -1031 -3 -1065 -2 -1156 37
-56 25 -109 83 -136 150 -23 56 -23 58 -18 441 10 745 2 1230 -19 1230 -4 0
-37 -44 -73 -97z m4300 -1315 c150 -61 267 -212 232 -299 -26 -62 -197 -116
-440 -138 -63 -6 -254 -11 -423 -11 l-308 0 18 31 c33 56 153 178 241 244 131
98 275 168 403 195 78 16 207 6 277 -22z m3134 21 c154 -32 308 -177 308 -288
0 -72 -107 -123 -331 -158 -139 -22 -578 -25 -672 -6 -97 21 -137 33 -137 44
0 23 183 190 277 253 205 136 394 189 555 155z M13615 3103 c-30 -56 -132
-191 -192 -254 l-53 -56 16 -99 c8 -54 18 -183 21 -285 5 -152 3 -204 -11
-283 -10 -53 -21 -98 -25 -100 -4 -3 -27 19 -50 49 -71 89 -415 421 -581 560
-204 172 -306 255 -312 255 -3 0 -8 -64 -11 -142 -5 -128 -25 -275 -42 -319
-4 -11 17 -27 87 -64 154 -80 346 -198 475 -290 135 -97 333 -260 333 -276 0
-22 -88 -138 -155 -205 -152 -152 -380 -293 -662 -409 -51 -21 -93 -41 -93
-45 0 -5 44 -38 98 -74 53 -37 135 -93 182 -126 166 -116 344 -159 529 -127
128 21 221 68 294 147 99 107 144 232 154 425 7 150 -14 245 -84 385 l-48 95
38 75 c68 136 117 317 135 500 l7 75 95 47 c56 28 94 52 92 60 -12 51 -199
518 -207 518 -6 0 -19 -17 -30 -37z m-194 -1461 c100 -124 160 -238 146 -276
-17 -43 -154 -79 -362 -97 -165 -14 -415 -2 -415 20 0 4 29 19 65 35 156 68
368 215 465 324 25 27 47 50 50 51 3 0 26 -25 51 -57z M14183 3047 c-34 -51
-101 -139 -148 -196 l-86 -102 10 -57 c45 -254 128 -1261 138 -1670 3 -144 10
-251 15 -250 5 2 29 64 54 138 122 371 129 430 128 1101 l-1 516 84 41 c45 23
83 48 82 54 -1 25 -194 512 -204 514 -5 2 -38 -38 -72 -89z M7012 2294 c-51
-63 -95 -121 -98 -129 -4 -8 7 -20 28 -31 45 -23 103 -67 165 -128 62 -59 44
-67 185 86 l89 97 -68 72 c-68 71 -170 150 -195 148 -7 0 -55 -52 -106 -115z
M3501 2254 c-89 -24 -151 -64 -241 -154 -146 -146 -217 -314 -227 -535 -5
-105 -3 -128 16 -179 11 -32 27 -66 36 -76 8 -9 15 -20 15 -23 0 -4 -309 -7
-687 -7 -620 0 -848 6 -1029 25 l-59 6 -42 -88 c-23 -48 -71 -133 -107 -187
-36 -55 -66 -105 -66 -112 0 -22 93 -38 460 -79 432 -49 520 -92 403 -195 -63
-55 -148 -94 -284 -129 -195 -50 -269 -56 -699 -56 -376 0 -399 1 -482 22
-113 29 -198 72 -264 135 -103 97 -138 191 -137 363 1 108 20 241 49 339 17
62 17 66 -1 66 -19 0 -26 -14 -68 -136 -65 -186 -82 -293 -82 -519 0 -164 3
-212 18 -265 78 -274 265 -425 569 -461 147 -17 693 -7 813 15 430 79 653 305
672 683 l6 111 511 5 c569 5 579 6 871 83 77 20 229 60 338 88 l198 52 30 59
c27 51 161 259 215 333 9 12 15 24 13 26 -2 2 -52 -9 -111 -24 -175 -46 -322
-64 -528 -64 -170 -1 -191 1 -259 23 -145 48 -248 141 -258 234 -8 64 11 109
66 160 57 53 118 86 221 119 65 20 95 23 220 22 126 0 152 -3 202 -23 57 -22
108 -69 108 -98 0 -32 26 -4 38 43 32 121 -7 267 -91 339 -79 68 -238 94 -366
59z M2295 597 c-50 -61 -96 -118 -103 -128 -11 -15 -4 -23 56 -63 38 -25 95
-71 128 -102 l59 -57 78 83 78 82 38 -25 c21 -14 66 -51 100 -82 l61 -58 79
84 c43 46 90 99 105 116 l28 33 -20 27 c-39 55 -152 152 -229 196 -7 5 -39
-25 -81 -77 -70 -84 -70 -85 -88 -64 -28 30 -135 113 -169 131 l-30 15 -90
-111z"/></g></g><g transform="translate(14,731)" fill="#a9c7ff"><g transform="translate(0.000000,149.000000) scale(0.100000,-0.100000)"><path d="M14167 1442 l-47 -48 53 -52 53 -52 49 50 49 50 -49 50 c-27 28 -52
50 -55 50 -3 0 -27 -22 -53 -48z M9938 1359 l-47 -54 -50 50 -51 49 -50 -49
-50 -49 52 -54 53 -53 46 49 46 50 50 -50 51 -50 43 47 c24 26 45 51 47 55 2
4 -19 31 -45 60 l-49 53 -46 -54z M2187 1373 c-4 -3 -7 -115 -7 -247 l0 -241
-132 131 c-73 71 -157 152 -187 179 -51 46 -55 48 -62 28 -4 -12 -11 -48 -14
-80 l-6 -58 72 -60 c92 -76 287 -262 300 -286 8 -15 3 -21 -23 -36 -26 -13
-67 -18 -185 -21 -172 -5 -160 2 -139 -87 l11 -50 145 1 c118 1 156 5 206 22
l61 21 44 -22 c41 -21 60 -22 282 -25 216 -3 240 -2 251 14 11 15 17 15 47 5
19 -7 84 -15 146 -18 l111 -6 16 31 15 30 63 -26 c58 -24 75 -26 213 -26 l150
-1 17 65 c31 120 16 254 -44 388 l-23 53 -63 -63 -62 -64 34 -69 c19 -39 39
-94 44 -122 l9 -53 -88 0 c-70 0 -189 15 -189 23 0 1 11 35 25 76 34 98 43
156 24 149 -8 -3 -44 -15 -80 -27 l-65 -21 -13 -77 c-21 -126 -18 -123 -105
-123 -107 0 -108 0 -81 68 25 62 51 169 43 177 -2 3 -38 -7 -79 -20 l-75 -26
-13 -76 c-7 -42 -17 -87 -22 -101 l-9 -23 -196 3 c-180 3 -197 5 -210 22 -11
16 -14 81 -14 348 l0 328 -68 0 c-38 0 -72 -3 -75 -7z M4090 1366 l-55 -11 3
-70 c3 -68 -14 -254 -24 -264 -2 -3 -21 11 -42 30 -75 71 -259 207 -266 197
-2 -1 -8 -36 -16 -77 -10 -62 -10 -75 1 -82 33 -18 195 -137 233 -170 l41 -36
-104 -104 -103 -103 12 -68 12 -68 199 0 200 0 15 35 c30 72 11 176 -50 276
l-34 56 24 69 c31 94 44 180 44 302 0 115 7 109 -90 88z m-19 -609 c49 -79 50
-77 -53 -77 l-91 0 24 28 c53 60 83 92 88 92 4 0 18 -19 32 -43z M4340 960 l0
-420 70 0 70 0 0 420 0 420 -70 0 -70 0 0 -420z M8730 1030 l0 -350 -82 0
c-46 0 -94 6 -108 13 -17 8 -42 47 -80 124 -30 62 -70 128 -89 147 -76 78
-198 64 -281 -30 -18 -21 -61 -82 -96 -135 -34 -54 -72 -102 -83 -108 -43 -23
-209 -3 -204 24 1 6 16 14 33 19 31 9 31 10 28 70 -3 57 -5 61 -28 64 -38 5
-78 22 -160 70 -140 82 -192 104 -255 109 -77 7 -136 -10 -182 -50 -41 -36
-93 -104 -93 -122 0 -6 20 -21 45 -33 l44 -21 20 28 c30 42 84 65 141 58 26
-3 95 -27 154 -54 121 -55 120 -52 8 -104 -101 -47 -194 -62 -392 -63 -96 -1
-183 2 -192 6 -15 6 -16 12 -7 35 27 72 57 203 46 203 -7 0 -44 -12 -83 -26
l-71 -26 -7 -56 c-4 -30 -12 -75 -18 -99 l-10 -43 -197 2 -196 3 -7 59 c-8 64
-47 158 -81 194 -36 39 -91 62 -149 62 -162 0 -289 -206 -215 -350 37 -75 116
-110 242 -110 30 0 55 -4 55 -9 0 -18 -44 -63 -81 -81 -46 -24 -142 -27 -210
-6 l-46 14 -22 -46 -23 -46 29 -23 c73 -59 217 -74 311 -33 65 28 132 100 163
175 l23 55 227 0 c220 0 227 1 241 21 13 21 15 21 63 4 104 -35 350 -29 518
14 40 11 105 34 144 53 l72 35 25 -37 c32 -49 97 -80 184 -87 109 -9 157 2
206 47 l42 39 31 -25 c18 -14 58 -37 90 -51 79 -37 189 -39 246 -5 37 21 41
22 83 7 33 -11 89 -15 209 -15 l165 0 0 420 0 420 -70 0 -70 0 0 -350z m-447
-178 c9 -9 34 -57 56 -106 l41 -89 -72 5 c-70 5 -140 29 -182 61 -19 14 -19
15 4 48 64 94 116 122 153 81z m-2137 -17 c31 -31 54 -84 54 -125 l0 -30 -62
1 c-82 1 -107 9 -131 41 -17 23 -18 31 -8 59 27 79 97 104 147 54z M9040 960
l0 -420 70 0 70 0 0 420 0 420 -70 0 -70 0 0 -420z M12065 1316 l-49 -57 52
-51 51 -51 45 49 c25 27 45 51 45 54 1 3 -21 29 -47 59 l-48 54 -49 -57z
M6695 1200 l-50 -50 53 -53 53 -52 44 48 c24 26 47 47 51 47 5 0 29 -20 54
-45 l46 -45 49 50 50 50 -53 53 -53 52 -45 -50 -44 -49 -48 47 c-26 26 -50 47
-53 47 -2 0 -27 -23 -54 -50z M14135 1161 c-144 -65 -202 -280 -100 -370 47
-41 103 -54 208 -48 l87 4 0 -33 0 -34 -237 0 c-256 0 -312 8 -418 55 -32 14
-59 24 -60 23 -7 -9 -55 -109 -55 -115 0 -4 20 -16 45 -27 25 -10 54 -29 65
-43 18 -23 18 -28 5 -53 -31 -60 -128 -94 -270 -94 -133 0 -195 26 -232 98
-18 35 -18 126 0 188 l15 47 -59 20 c-55 18 -60 19 -68 3 -22 -42 -44 -143
-45 -207 -1 -161 96 -258 288 -286 93 -14 225 0 313 33 77 29 168 118 184 179
l12 44 311 0 311 0 12 75 c20 122 20 305 0 372 -45 151 -185 227 -312 169z
m139 -147 c33 -34 62 -124 44 -136 -20 -12 -134 -9 -163 4 -46 21 -46 90 2
134 35 33 82 32 117 -2z M9960 1098 l0 -43 -106 -49 c-203 -95 -274 -199 -214
-316 39 -77 175 -125 299 -104 50 8 63 7 83 -7 39 -28 98 -39 218 -39 134 0
178 10 224 50 l33 29 22 -23 c13 -14 46 -35 74 -47 69 -30 208 -33 280 -6 58
23 62 35 62 177 0 95 -3 111 -28 162 -34 68 -83 112 -144 127 -117 30 -221
-40 -318 -214 -63 -112 -76 -119 -216 -114 -133 6 -129 -1 -129 255 l0 204
-70 0 -70 0 0 -42z m0 -282 c0 -95 -1 -96 -79 -96 -150 0 -155 69 -12 143 41
20 78 37 82 37 5 0 9 -38 9 -84z m800 24 c28 -30 50 -95 50 -151 l0 -32 -70 5
c-47 4 -87 14 -125 32 l-55 28 22 41 c60 107 124 135 178 77z M11287 1040
c-26 -33 -47 -65 -47 -72 0 -6 36 -66 80 -133 44 -67 82 -129 86 -138 6 -15
-10 -17 -175 -17 l-181 0 5 -22 c3 -13 9 -43 13 -68 l8 -45 166 -3 c141 -2
176 0 222 16 50 17 57 17 83 3 36 -21 309 -27 467 -12 150 15 235 40 406 120
80 38 153 71 163 75 13 4 17 17 17 60 0 52 -2 56 -27 62 -64 14 -95 28 -193
86 -57 33 -128 69 -157 79 -103 37 -208 17 -281 -54 -31 -29 -78 -105 -70
-112 2 -1 22 -12 46 -24 l43 -22 26 31 c39 47 78 63 135 57 46 -6 258 -93 258
-107 0 -4 -35 -23 -78 -44 -126 -59 -193 -69 -463 -70 -221 -1 -238 0 -258 18
-12 11 -70 104 -129 208 -59 103 -110 188 -113 188 -3 0 -27 -27 -52 -60z
M5509 1050 c-58 -10 -98 -31 -138 -71 -50 -49 -65 -87 -66 -160 0 -90 25 -121
147 -184 96 -49 138 -80 138 -101 0 -23 -71 -74 -128 -91 -36 -10 -92 -17
-152 -17 -83 -1 -102 3 -150 26 -89 44 -114 110 -86 232 9 38 13 73 9 77 -5 4
-32 13 -60 22 l-53 15 -20 -67 c-78 -249 15 -408 256 -442 277 -38 514 96 514
291 0 55 -31 87 -134 135 -50 24 -101 52 -113 64 -44 42 -20 111 42 127 28 7
126 0 161 -11 18 -6 26 2 52 46 36 62 32 71 -36 93 -64 20 -128 25 -183 16z
M1385 1008 c-55 -15 -147 -111 -208 -215 -27 -46 -58 -90 -70 -98 -16 -11 -50
-15 -142 -15 -135 0 -222 16 -309 54 -33 14 -60 25 -61 24 -6 -7 -55 -108 -55
-112 0 -3 22 -17 50 -31 27 -14 57 -37 66 -51 16 -24 16 -27 -3 -52 -48 -65
-207 -104 -338 -83 -121 18 -175 71 -175 171 0 31 7 79 15 106 8 27 15 50 15
51 0 0 -27 10 -60 22 l-61 20 -11 -27 c-42 -107 -51 -248 -19 -317 58 -127
226 -192 432 -166 129 17 191 43 260 110 43 42 61 68 70 101 l12 46 147 -4
c159 -5 201 3 257 44 l31 24 57 -34 c99 -60 211 -71 327 -31 45 16 47 19 55
63 28 174 -24 334 -126 387 -38 19 -110 25 -156 13z m107 -165 c27 -29 42 -70
53 -140 l7 -43 -55 0 c-61 0 -140 22 -176 50 l-24 18 25 44 c59 100 119 125
170 71z M3812 460 c-37 -23 -56 -63 -48 -102 4 -21 2 -28 -10 -28 -11 0 -14
-9 -12 -37 l3 -38 113 -3 112 -3 0 41 0 40 -43 0 c-56 0 -91 23 -76 51 8 16
19 20 45 17 32 -3 37 0 49 30 14 31 13 33 -11 42 -40 16 -86 12 -122 -10z
M217 159 l-46 -52 47 -54 46 -53 51 50 51 50 49 -51 50 -50 48 52 49 52 -51
51 -51 51 -47 -48 -48 -47 -51 51 -51 50 -46 -52z M13237 162 c-26 -26 -47
-52 -47 -58 0 -5 22 -31 48 -57 l48 -47 49 50 49 50 51 -50 52 -51 46 54 46
54 -52 51 -52 50 -44 -50 -44 -49 -51 50 -52 51 -47 -48z"/></g></g><rect x="26" y="1034" width="1434" height="8" fill="#ffffff"/><g transform="translate(0,1146)" fill="#ffffff"><g transform="translate(0.000000,150.000000) scale(0.100000,-0.100000)"><path d="M3224 1485 c-159 -29 -278 -89 -385 -195 -85 -84 -133 -163 -175
-285 -23 -69 -28 -101 -32 -226 -5 -173 12 -262 80 -399 59 -121 179 -241 298
-298 135 -65 191 -76 370 -76 169 0 229 10 368 64 122 47 118 38 65 160 -25
58 -49 109 -52 113 -4 4 -41 -8 -82 -27 -102 -49 -177 -66 -284 -66 -204 0
-351 80 -431 235 -44 83 -59 153 -58 270 0 260 131 431 367 482 135 29 322 -2
443 -72 l42 -24 47 109 c27 60 48 112 48 117 0 15 -77 53 -169 83 -151 49
-317 61 -460 35z M12594 1486 c-98 -19 -137 -32 -225 -78 -181 -93 -306 -263
-354 -482 -27 -119 -17 -323 19 -431 42 -124 90 -201 180 -290 132 -131 274
-190 482 -202 183 -10 407 29 552 97 l62 29 0 340 0 341 -290 0 -290 0 0 -125
0 -125 160 0 160 0 0 -128 0 -129 -72 -23 c-88 -27 -258 -38 -338 -21 -122 25
-215 86 -279 182 -61 92 -83 172 -84 304 -1 167 33 264 126 362 63 67 160 117
259 133 136 23 334 -7 459 -69 l57 -28 50 114 51 114 -32 20 c-40 24 -161 64
-252 84 -101 22 -314 28 -401 11z M270 758 c-145 -392 -265 -719 -268 -726 -3
-10 25 -12 133 -10 l137 3 60 168 60 167 298 0 298 0 32 -87 c17 -49 45 -125
62 -170 l30 -83 134 0 c74 0 134 4 134 8 0 7 -427 1166 -506 1375 l-26 67
-157 0 -158 0 -263 -712z m527 140 l101 -283 -104 -3 c-57 -1 -151 -1 -208 0
l-103 3 100 283 c55 155 103 282 107 282 4 0 52 -127 107 -282z M1580 745 l0
-726 128 3 127 3 3 723 2 722 -130 0 -130 0 0 -725z M4102 748 l3 -723 128 -3
127 -3 0 311 0 310 345 0 345 0 2 -307 3 -308 130 0 130 0 3 723 2 722 -135 0
-135 0 0 -290 0 -290 -345 0 -345 0 0 290 0 290 -130 0 -130 0 2 -722z M5760
754 c-146 -394 -267 -720 -268 -725 -2 -6 51 -8 135 -7 l138 3 59 168 60 167
300 -2 299 -3 60 -168 60 -167 133 0 c101 0 134 3 134 13 -1 6 -119 332 -264
722 l-263 710 -159 3 -159 2 -265 -716z m539 117 c50 -140 91 -256 91 -258 0
-2 -94 -3 -209 -3 l-208 0 99 278 c54 152 101 284 104 292 4 10 10 4 19 -20 7
-19 54 -149 104 -289z M7070 745 l0 -725 463 2 462 3 3 117 3 118 -336 0 -335
0 0 605 0 605 -130 0 -130 0 0 -725z M8202 748 l3 -723 463 -3 462 -2 0 120 0
120 -330 0 -330 0 0 605 0 605 -135 0 -135 0 2 -722z M9340 745 l0 -725 465 0
465 0 0 120 0 120 -332 2 -333 3 -3 188 -2 187 305 0 305 0 0 125 0 125 -305
0 -305 0 0 170 0 170 335 0 335 0 0 120 0 120 -465 0 -465 0 0 -725z M10562
748 l3 -723 127 -3 128 -3 2 595 3 595 260 -594 260 -595 197 0 198 0 0 725 0
725 -125 0 -125 0 -2 -596 -3 -596 -260 596 -260 596 -203 0 -202 0 2 -722z
M13662 748 l3 -723 465 0 465 0 3 118 3 117 -336 0 -335 0 0 190 0 190 300 0
300 0 0 125 0 125 -300 0 -300 0 0 170 0 170 330 0 330 0 0 120 0 120 -465 0
-465 0 2 -722z"/></g></g><g transform="translate(6,1345)" fill="#a9c7ff"><g transform="translate(0.000000,155.000000) scale(0.100000,-0.100000)"><path d="M319 1540 c-119 -19 -220 -86 -260 -174 -23 -50 -25 -156 -4 -215 37
-107 124 -170 318 -232 262 -83 327 -138 327 -274 0 -145 -109 -221 -315 -219
-98 1 -209 32 -292 80 l-42 24 -26 -43 c-14 -24 -25 -47 -25 -51 0 -16 170
-86 249 -101 99 -20 257 -16 336 9 104 32 184 107 216 201 7 22 13 74 13 115
-1 91 -29 154 -97 217 -60 56 -126 88 -287 140 -161 52 -228 93 -259 155 -45
94 -17 185 72 234 41 22 67 28 141 32 107 5 184 -11 294 -63 l72 -34 25 39
c14 22 25 43 25 48 0 13 -146 79 -210 95 -74 20 -203 27 -271 17z M11685 1540
c-246 -34 -436 -211 -491 -456 -25 -112 -16 -273 21 -374 55 -151 159 -269
291 -332 171 -80 411 -77 597 9 42 20 77 37 77 38 0 2 -11 23 -25 47 l-25 45
-58 -29 c-92 -43 -175 -61 -287 -61 -206 0 -357 92 -441 268 -87 183 -64 414
58 573 42 54 133 118 206 144 128 46 323 32 458 -32 36 -18 67 -30 69 -28 1 1
12 22 24 45 l21 43 -61 30 c-116 59 -300 89 -434 70z M5892 933 l3 -598 53 -3
52 -3 0 600 0 601 -55 0 -55 0 2 -597z M7092 933 l3 -598 53 -3 52 -3 0 600 0
601 -55 0 -55 0 2 -597z M3235 1435 c-16 -15 -25 -36 -25 -55 0 -39 39 -80 75
-80 32 0 85 50 85 80 0 30 -53 80 -85 80 -14 0 -37 -11 -50 -25z M9675 1435
c-16 -15 -25 -36 -25 -55 0 -39 39 -80 75 -80 32 0 85 50 85 80 0 30 -53 80
-85 80 -14 0 -37 -11 -50 -25z M14180 1275 l0 -145 -85 0 -85 0 0 -50 0 -50
85 0 85 0 0 -249 c0 -276 6 -310 62 -368 54 -55 117 -75 256 -81 l122 -5 0 56
0 55 -129 4 c-112 3 -132 6 -151 23 -51 47 -54 63 -55 320 l0 240 163 3 162 2
0 50 0 50 -165 0 -165 0 0 145 0 145 -50 0 -50 0 0 -145z M16617 1414 c-4 -4
-7 -70 -7 -146 l0 -138 -85 0 -85 0 0 -50 0 -50 84 0 84 0 4 -257 c3 -254 3
-259 29 -308 49 -97 156 -140 334 -133 l80 3 0 50 0 50 -125 5 c-206 8 -204 5
-208 343 l-3 247 165 0 166 0 0 50 0 50 -165 0 -164 0 -3 143 -3 142 -45 3
c-25 2 -49 0 -53 -4z M1250 1136 c-127 -27 -228 -107 -283 -223 -30 -64 -32
-75 -32 -178 0 -139 22 -199 102 -285 79 -85 157 -121 278 -128 49 -2 115 0
145 6 63 12 157 45 185 66 19 13 19 15 0 55 -23 52 -29 56 -57 37 -93 -60
-282 -79 -373 -38 -89 40 -148 117 -170 220 l-7 32 337 0 c296 0 336 2 342 16
10 27 -17 157 -46 221 -52 111 -148 182 -272 203 -76 12 -78 12 -149 -4z m172
-108 c73 -22 146 -104 173 -195 l6 -23 -276 0 -276 0 6 23 c28 90 101 168 183
194 49 15 135 16 184 1z M3855 1144 c-16 -2 -70 -9 -120 -15 -49 -6 -100 -15
-113 -20 l-22 -9 2 -382 3 -383 50 0 50 0 3 341 2 342 23 6 c12 3 72 9 132 12
163 9 221 -12 268 -99 21 -40 22 -57 27 -322 l5 -280 50 0 50 0 0 285 c0 256
-2 291 -20 345 -25 78 -83 138 -153 159 -53 15 -186 27 -237 20z M4780 1138
c-139 -19 -267 -106 -318 -216 -97 -211 -15 -461 181 -553 88 -41 163 -52 289
-45 l107 5 -5 -32 c-11 -62 -25 -94 -52 -120 -79 -76 -275 -77 -423 -1 -28 14
-52 24 -54 22 -1 -2 2 -31 7 -65 l11 -63 56 -21 c183 -69 407 -39 499 65 59
68 62 94 62 567 l0 427 -52 12 c-67 14 -185 30 -218 28 -14 0 -54 -5 -90 -10z
m243 -113 c16 -7 17 -30 17 -295 l0 -288 -32 -5 c-139 -24 -250 -14 -331 31
-95 51 -139 137 -139 267 0 156 67 252 202 290 56 15 244 15 283 0z M6470
1140 c-94 -16 -171 -66 -206 -132 -31 -60 -9 -173 43 -220 33 -30 125 -66 238
-94 168 -40 215 -72 215 -141 0 -76 -38 -107 -153 -124 -90 -13 -195 4 -278
46 -28 14 -53 24 -54 23 -6 -7 -45 -88 -45 -92 0 -12 104 -57 162 -71 82 -19
208 -19 283 1 134 34 195 101 195 212 0 144 -62 196 -308 258 -76 19 -148 42
-162 53 -48 35 -52 100 -8 141 63 58 254 53 379 -10 l36 -19 21 45 c12 24 22
47 22 49 0 3 -17 13 -38 24 -83 42 -252 67 -342 51z M7685 1144 c-51 -7 -113
-23 -170 -45 l-55 -20 0 -59 0 -59 63 28 c146 66 301 68 376 5 30 -25 44 -57
56 -128 l6 -39 -93 7 c-225 16 -398 -45 -449 -159 -22 -48 -25 -151 -5 -198
19 -47 96 -111 158 -131 113 -38 341 -29 455 19 l33 14 0 269 c0 304 -7 346
-66 412 -22 24 -56 47 -87 58 -53 20 -168 33 -222 26z m229 -420 l47 -7 -3
-131 -3 -131 -50 -13 c-27 -8 -97 -14 -155 -15 -87 -1 -113 3 -152 20 -57 26
-88 71 -88 128 0 73 47 123 137 144 46 11 202 13 267 5z M8550 1145 c-8 -2
-66 -11 -127 -21 l-113 -18 0 -388 0 -389 53 3 52 3 3 342 2 342 57 11 c32 7
94 10 138 8 104 -5 141 -25 175 -93 25 -49 25 -54 28 -333 l3 -283 52 3 52 3
3 230 c2 202 -4 315 -24 406 -5 24 -2 28 43 44 26 9 84 19 129 22 123 9 186
-19 222 -97 13 -29 17 -87 22 -320 l5 -285 50 0 50 0 0 290 c0 323 -6 361 -68
432 -83 95 -259 115 -461 52 l-69 -21 -37 21 c-49 27 -183 47 -240 36z M10280
1140 c-191 -34 -330 -206 -330 -409 0 -165 92 -312 236 -378 67 -30 188 -41
277 -24 53 10 177 58 177 68 0 2 -12 24 -26 48 l-26 45 -48 -25 c-27 -14 -80
-30 -119 -36 -153 -23 -274 38 -335 170 -31 70 -29 198 5 271 30 64 74 112
133 143 34 18 57 22 141 22 89 0 107 -3 163 -29 34 -16 64 -27 66 -25 2 2 13
23 25 46 l21 43 -38 19 c-86 44 -233 67 -322 51z M12567 1140 c-120 -21 -236
-113 -291 -229 -29 -62 -31 -73 -31 -181 0 -110 2 -119 32 -181 40 -80 120
-160 200 -197 51 -23 70 -27 158 -27 81 1 111 5 158 24 81 32 168 115 210 200
30 63 32 72 32 181 0 103 -3 121 -26 170 -84 176 -261 272 -442 240z m200
-128 c57 -29 104 -79 134 -138 33 -67 34 -206 3 -275 -69 -149 -235 -214 -382
-149 -101 44 -172 159 -172 279 0 143 72 250 199 298 52 19 166 11 218 -15z
M13424 1140 c-39 -4 -103 -13 -143 -20 l-71 -12 2 -386 3 -387 50 0 50 0 3
341 2 342 23 6 c12 4 72 9 132 13 163 8 221 -14 268 -100 21 -40 22 -57 27
-322 l5 -280 50 0 50 0 3 250 c2 149 -2 276 -8 314 -21 123 -78 197 -174 226
-59 18 -185 25 -272 15z M15010 1137 c-84 -20 -151 -59 -212 -126 -172 -185
-132 -494 80 -629 130 -83 346 -82 513 3 19 10 35 19 37 20 1 1 -9 23 -24 48
l-26 47 -36 -19 c-117 -58 -277 -74 -363 -35 -90 42 -145 111 -167 212 l-10
42 341 0 340 0 -6 68 c-12 137 -61 234 -152 304 -82 62 -211 89 -315 65z m179
-112 c65 -22 108 -62 141 -128 16 -33 30 -66 30 -74 0 -10 -52 -13 -275 -13
l-274 0 14 39 c43 122 138 190 266 191 31 0 75 -7 98 -15z M15895 1143 c-55
-4 -195 -23 -222 -30 l-23 -5 0 -389 0 -389 50 0 50 0 0 344 0 345 48 8 c26 4
99 8 163 8 108 0 118 -2 156 -27 78 -52 93 -120 93 -450 l0 -228 50 0 50 0 0
282 c0 321 -7 368 -67 438 -46 54 -98 79 -186 90 -72 9 -86 10 -162 3z M1997
1115 c-37 -8 -77 -17 -87 -20 -19 -6 -20 -17 -20 -386 l0 -379 50 0 50 0 0
339 0 339 75 11 c42 6 109 11 150 11 l75 0 0 50 0 50 -112 -1 c-62 0 -144 -7
-181 -14z M2334 1113 c24 -63 321 -760 329 -771 7 -8 27 -12 54 -10 l45 3 167
395 168 395 -50 3 c-27 2 -55 1 -61 -1 -6 -3 -69 -144 -140 -315 -71 -171
-132 -309 -135 -307 -4 2 -65 143 -136 314 l-129 311 -59 0 c-52 0 -58 -2 -53
-17z M3240 730 l0 -400 50 0 50 0 0 400 0 400 -50 0 -50 0 0 -400z M9672 733
l3 -398 50 0 50 0 3 398 2 397 -55 0 -55 0 2 -397z"/></g></g><g transform="translate(1548,0)"><g fill="url(#atic-mark-grad)"><g transform="translate(0.000000,1500.000000) scale(0.100000,-0.100000)"><path d="M6164 14984 c-98 -35 -177 -150 -210 -304 -34 -156 -18 -440 39 -717
l24 -112 -106 102 c-582 561 -1069 867 -1382 867 -113 0 -172 -22 -239 -90
-68 -68 -90 -124 -97 -246 -9 -153 35 -353 134 -604 47 -119 181 -401 252
-527 22 -40 39 -73 37 -73 -2 0 -64 36 -138 79 -214 125 -459 253 -648 339
-673 305 -1111 358 -1334 161 -56 -49 -97 -142 -103 -235 -21 -309 284 -796
866 -1387 86 -88 147 -156 136 -153 -292 83 -762 178 -1070 215 -683 83 -1147
18 -1355 -191 -81 -81 -112 -149 -118 -258 -10 -196 89 -388 326 -632 288
-296 701 -581 1267 -874 99 -51 173 -95 165 -97 -8 -3 -80 -10 -160 -16 -551
-43 -1154 -163 -1563 -312 -151 -55 -394 -173 -503 -245 -50 -32 -131 -100
-185 -153 -76 -77 -104 -112 -136 -178 -79 -157 -79 -289 0 -446 33 -68 59
-101 146 -187 149 -149 319 -256 583 -369 412 -176 1027 -321 1643 -388 91
-10 165 -20 165 -23 0 -3 -62 -36 -137 -74 -799 -397 -1508 -907 -1838 -1320
-96 -121 -126 -166 -178 -272 -62 -123 -88 -212 -94 -321 -11 -185 39 -319
166 -444 133 -131 324 -210 613 -256 154 -24 586 -24 808 0 324 36 636 92 985
177 177 43 475 125 529 146 11 4 -36 -57 -105 -137 -615 -712 -1071 -1434
-1244 -1971 -65 -201 -79 -283 -79 -468 -1 -155 1 -170 27 -245 66 -186 186
-299 377 -351 98 -27 311 -25 460 5 544 107 1264 505 2008 1108 83 68 152 120
152 115 0 -4 -22 -69 -49 -144 -288 -794 -444 -1520 -444 -2063 -1 -226 10
-326 49 -475 52 -198 150 -337 282 -402 64 -32 71 -33 187 -33 133 0 170 9
310 76 455 215 1056 911 1583 1831 l88 155 1 -351 c1 -491 28 -867 89 -1216
49 -287 103 -469 194 -656 74 -152 164 -255 268 -306 61 -30 75 -33 162 -33
87 0 101 3 160 32 387 190 766 980 1024 2138 l53 240 22 -75 c79 -267 98 -330
143 -459 167 -483 352 -837 541 -1037 167 -177 316 -229 465 -164 72 32 161
132 219 246 139 272 212 658 232 1229 8 218 -1 758 -14 845 -4 30 -3 33 8 16
6 -10 60 -91 118 -180 410 -622 776 -911 1030 -813 59 23 141 108 175 180 143
314 84 966 -165 1805 -30 101 -35 130 -23 120 10 -7 49 -41 89 -75 465 -401
859 -508 1013 -275 51 77 71 160 71 292 0 195 -49 399 -163 688 -61 153 -219
482 -314 651 -37 67 -43 83 -28 78 10 -3 62 -22 114 -43 606 -234 943 -10 773
516 -76 235 -282 553 -566 871 l-85 96 141 6 c365 17 552 138 582 377 10 82
-16 187 -74 305 -106 211 -308 425 -600 634 -61 44 -112 83 -112 87 0 3 38 23
85 44 179 79 305 189 371 324 43 87 56 196 35 287 -59 252 -348 495 -753 635
l-108 37 79 81 c303 310 340 676 93 909 -148 139 -388 217 -674 217 l-77 0 31
61 c48 96 108 287 125 400 36 233 -14 428 -140 555 -67 66 -136 105 -236 130
-133 34 -398 2 -522 -62 -16 -8 -32 -13 -35 -11 -3 3 0 36 7 74 18 113 24 388
10 499 -25 205 -88 359 -187 465 -80 84 -152 119 -262 126 -132 9 -288 -50
-417 -157 -32 -27 -75 -63 -95 -79 l-37 -31 -6 68 c-4 37 -16 121 -27 187 -78
466 -242 786 -457 892 -50 24 -69 28 -147 28 -79 0 -97 -3 -145 -28 -113 -58
-244 -217 -331 -401 -30 -65 -39 -77 -45 -61 -120 345 -274 656 -418 848 -87
116 -215 232 -299 273 -62 29 -81 34 -147 34 -62 0 -86 -5 -128 -26 -147 -73
-254 -299 -296 -622 -9 -68 -16 -131 -16 -139 0 -9 -34 38 -76 103 -287 451
-596 794 -832 927 -130 72 -262 95 -358 61z m231 -248 c241 -101 650 -614 988
-1238 45 -83 48 -93 58 -200 68 -795 285 -1581 572 -2080 l45 -78 -72 -79
c-39 -44 -74 -80 -79 -80 -4 -1 -23 9 -41 21 -25 16 -36 33 -41 58 -41 226
-234 667 -451 1030 -220 370 -540 816 -857 1198 l-94 114 -43 134 c-56 178
-113 413 -141 576 -30 176 -33 435 -6 520 33 107 80 138 162 104z m-1680 -203
c156 -49 406 -212 695 -454 154 -128 469 -436 639 -624 l127 -140 54 -145
c136 -368 370 -872 560 -1204 189 -330 415 -655 604 -868 48 -54 83 -98 79
-98 -4 0 -72 7 -150 16 l-142 17 -77 104 c-131 179 -271 340 -484 557 -377
384 -778 728 -1264 1085 -193 141 -183 131 -318 343 -341 540 -551 1048 -535
1296 8 135 58 163 212 115z m3263 -102 c20 -10 63 -46 94 -78 173 -182 364
-588 503 -1070 l45 -152 -25 -109 c-105 -465 -128 -1084 -57 -1528 l9 -51 -46
14 c-28 8 -63 12 -88 8 -49 -7 -42 -20 -68 140 -70 440 -305 1101 -605 1705
l-62 125 5 230 c9 379 61 619 158 729 51 59 79 66 137 37z m1391 -656 c148
-76 287 -550 308 -1051 l6 -151 -60 -100 c-280 -460 -442 -995 -447 -1471 0
-94 -5 -172 -9 -173 -5 0 -55 48 -111 108 l-103 108 23 83 c53 194 59 254 59
612 0 261 -4 368 -18 485 -24 199 -78 517 -118 690 -17 77 -31 151 -31 165 1
41 80 268 131 376 100 209 214 332 309 334 18 0 46 -7 61 -15z m-6278 -111
c409 -76 1014 -365 1672 -797 l197 -129 67 -97 c507 -729 1171 -1446 1708
-1844 l120 -89 17 -151 c25 -223 31 -212 -67 -118 -193 182 -533 424 -860 611
-450 257 -1101 552 -1668 755 l-188 68 -132 115 c-167 146 -518 493 -647 637
-228 257 -376 462 -476 660 -92 184 -109 313 -48 362 16 12 37 24 49 26 50 10
180 6 256 -9z m7474 -809 c72 -54 114 -189 122 -390 8 -193 -20 -421 -74 -618
-15 -56 -19 -60 -122 -139 -141 -108 -387 -356 -489 -493 -91 -123 -186 -283
-236 -399 -19 -42 -36 -80 -39 -83 -6 -5 -198 14 -225 23 -9 2 -2 19 23 51 51
67 157 287 199 413 96 294 153 629 176 1044 11 183 12 190 39 230 59 84 165
199 238 257 167 132 303 169 388 104z m-2659 -550 c40 -121 87 -269 103 -330
39 -145 83 -346 78 -352 -8 -7 -124 317 -172 481 -42 142 -126 484 -124 503 1
19 47 -100 115 -302z m-1043 123 c110 -160 255 -391 344 -548 84 -148 206
-390 200 -396 -11 -11 -252 355 -382 581 -71 122 -259 485 -251 485 3 0 43
-55 89 -122z m1911 -178 c22 -211 30 -435 21 -603 -4 -82 -9 -146 -11 -144
-12 12 -35 254 -40 427 -6 171 2 478 12 468 2 -2 10 -69 18 -148z m-2729 -365
c266 -238 656 -645 775 -810 14 -19 14 -19 -5 -4 -293 231 -760 697 -1031
1029 -25 30 -19 27 36 -18 36 -30 137 -118 225 -197z m-3790 109 c375 -36 823
-128 1315 -269 365 -104 345 -95 521 -237 816 -657 1701 -1186 2338 -1398 143
-47 355 -100 402 -100 18 0 32 -12 53 -45 34 -54 38 -46 -93 -185 l-89 -94
-123 61 c-642 319 -1683 511 -2914 540 l-280 6 -186 83 c-237 105 -618 296
-824 414 -202 116 -527 332 -670 447 -273 218 -454 445 -455 571 -1 189 380
267 1005 206z m7364 -169 c-27 -160 -89 -399 -134 -521 -45 -119 -54 -138 -55
-107 0 45 51 294 85 411 36 125 115 345 121 339 2 -2 -6 -57 -17 -122z m1874
-48 c65 -30 92 -65 113 -148 40 -155 -32 -424 -180 -671 -30 -51 -61 -101 -68
-110 -8 -11 -59 -29 -128 -47 -224 -58 -476 -161 -654 -268 -151 -91 -334
-248 -413 -356 -20 -27 -39 -45 -43 -40 -5 4 -19 63 -33 130 l-24 123 102 102
c238 240 435 578 581 997 48 139 39 128 195 207 222 111 422 141 552 81z
m-1143 -598 c-108 -197 -231 -369 -330 -464 l-42 -40 46 93 c57 113 118 210
204 322 71 93 175 210 181 205 2 -2 -25 -54 -59 -116z m-5265 -10 c189 -85
570 -278 735 -373 229 -133 607 -382 596 -393 -16 -16 -494 213 -756 362 -245
139 -740 455 -740 472 0 6 -3 8 165 -68z m3703 -284 c187 -195 307 -312 334
-326 31 -16 110 -29 365 -59 179 -22 327 -41 329 -43 3 -2 38 -174 80 -383 55
-274 83 -393 101 -429 18 -34 107 -133 287 -318 143 -147 267 -278 275 -291
13 -21 4 -41 -144 -312 -152 -277 -159 -292 -163 -354 -3 -52 13 -149 78 -483
46 -230 80 -420 77 -424 -3 -3 -152 -20 -331 -39 -206 -21 -335 -38 -353 -48
-56 -29 -94 -88 -288 -444 l-198 -362 -81 77 c-588 562 -616 586 -696 604 -23
5 -186 -7 -479 -37 -244 -25 -444 -44 -446 -42 -1 2 -21 172 -44 378 -72 642
-78 686 -104 743 -27 60 -23 55 -460 470 -180 171 -326 317 -325 323 2 7 132
155 289 331 158 176 297 339 309 362 30 61 29 104 -24 570 -26 222 -44 406
-42 408 3 3 170 -13 373 -36 410 -46 460 -48 510 -25 21 11 115 107 249 255
118 132 218 239 222 239 4 0 139 -137 300 -305z m3132 -259 c202 -13 373 -95
427 -203 22 -46 25 -62 20 -112 -17 -163 -149 -348 -359 -507 -73 -55 -105
-73 -121 -69 -126 28 -543 43 -722 26 -290 -28 -549 -107 -716 -218 l-38 -25
-95 99 c-62 63 -95 106 -96 121 0 12 4 22 9 22 4 0 47 7 93 15 206 36 435 146
663 318 107 81 332 304 425 420 l75 95 95 11 c102 13 190 18 230 14 14 -1 63
-4 110 -7z m-935 -202 c-74 -67 -219 -174 -310 -229 -81 -49 -217 -115 -237
-115 -30 0 124 129 257 216 89 58 310 174 330 174 5 -1 -12 -21 -40 -46z
m-7522 -535 c455 -177 978 -343 1416 -450 484 -119 1026 -199 1343 -199 54 0
98 -1 98 -2 0 -2 -7 -21 -15 -43 -26 -72 -17 -150 30 -259 7 -17 4 -18 -51
-12 -120 14 -552 -19 -834 -64 -554 -89 -1323 -304 -1930 -540 l-185 -72 -130
6 c-1307 63 -2533 420 -2724 794 -100 195 155 409 697 586 514 168 1371 295
2045 305 107 1 108 1 240 -50z m1185 1 c429 -44 814 -109 1152 -196 144 -38
470 -142 470 -151 0 -2 -44 -2 -97 2 -405 26 -752 82 -1188 191 -178 45 -527
143 -575 163 -24 10 -24 10 8 10 18 1 121 -8 230 -19z m6743 -401 c-176 -60
-432 -103 -581 -97 l-75 3 100 33 c172 57 368 89 545 90 l95 0 -84 -29z m706
-35 c311 -69 577 -197 716 -343 66 -69 87 -111 87 -176 0 -152 -209 -306 -525
-385 l-114 -29 -117 55 c-427 200 -864 323 -1216 341 l-129 6 6 28 c6 24 -11
111 -30 160 -5 14 11 17 122 22 207 10 438 58 640 133 101 36 355 157 408 192
17 11 32 21 34 21 2 1 55 -11 118 -25z m-967 -815 c47 -6 137 -21 200 -35 112
-24 380 -100 390 -111 15 -16 -313 25 -470 59 -95 20 -340 95 -340 104 0 5 92
-2 220 -17z m-4771 -39 c-9 -5 -83 -31 -165 -59 -408 -136 -911 -227 -1527
-276 -104 -8 -214 -15 -245 -14 l-57 0 45 15 c525 168 1156 299 1605 333 158
12 364 12 344 1z m4627 -243 c149 -49 326 -88 494 -109 133 -17 563 -17 688 0
l93 13 92 -52 c367 -206 692 -487 793 -687 35 -70 43 -144 19 -189 -69 -128
-376 -173 -738 -107 l-89 16 -87 77 c-577 509 -1182 858 -1604 928 -106 18
-109 19 -128 53 l-20 35 50 96 51 95 123 -62 c69 -34 187 -82 263 -107z
m-4035 -19 c76 -72 139 -138 139 -145 0 -7 -7 -30 -15 -50 l-15 -38 -117 -23
c-700 -134 -1698 -779 -2768 -1787 l-160 -151 -135 -46 c-680 -234 -1281 -376
-1865 -440 -186 -20 -635 -17 -760 6 -205 37 -346 103 -402 187 -24 37 -28 52
-27 113 1 88 26 157 96 263 199 305 623 665 1190 1011 338 206 771 430 1158
599 l125 55 130 -7 c156 -8 745 9 1021 30 981 74 1721 246 2179 509 44 25 81
46 83 46 2 0 66 -59 143 -132z m4099 -496 c70 -32 181 -89 246 -126 126 -72
426 -267 420 -273 -6 -6 -258 112 -366 172 -179 99 -464 285 -436 285 4 0 65
-26 136 -58z m-265 -162 c350 -276 862 -524 1358 -655 124 -33 131 -36 193
-90 71 -63 253 -254 364 -384 227 -264 402 -557 437 -729 15 -70 15 -80 0
-114 -25 -59 -63 -73 -187 -72 -117 1 -192 18 -355 79 -195 73 -473 222 -500
268 -32 54 -228 323 -334 457 -340 432 -798 894 -1070 1079 l-56 39 -28 139
c-15 76 -27 145 -27 153 0 7 28 -14 63 -47 34 -32 98 -88 142 -123z m-3581
-220 l23 -213 -162 -161 c-322 -321 -627 -728 -952 -1271 -219 -365 -459 -815
-640 -1199 l-98 -209 -115 -105 c-430 -391 -968 -795 -1420 -1067 -173 -104
-506 -270 -643 -320 -201 -74 -278 -90 -432 -90 -135 0 -142 1 -187 28 -73 43
-101 99 -106 212 -23 515 623 1574 1585 2601 l150 159 159 64 c918 367 1771
848 2319 1308 133 112 376 357 445 450 32 42 46 55 48 43 2 -9 13 -113 26
-230z m-490 199 c-54 -57 -248 -220 -379 -319 -327 -245 -887 -579 -1251 -745
l-99 -45 40 36 c249 224 767 601 1093 796 201 119 570 304 616 307 6 1 -3 -13
-20 -30z m4095 -551 c159 -132 429 -412 655 -677 54 -63 -105 71 -293 247
-163 153 -480 502 -455 502 3 0 45 -32 93 -72z m-323 -36 c127 -172 234 -293
448 -507 297 -296 599 -544 932 -763 l132 -87 100 -161 c345 -552 564 -1046
604 -1359 14 -112 5 -179 -29 -213 -23 -22 -30 -24 -91 -20 -190 14 -505 230
-867 592 -174 174 -182 184 -209 256 -55 144 -178 436 -253 600 -323 707 -691
1307 -1017 1658 -37 39 -64 72 -59 73 4 0 53 7 108 14 55 7 107 13 115 13 8 1
47 -43 86 -96z m-634 -25 c9 -7 23 -40 32 -73 61 -233 225 -617 398 -929 256
-463 595 -948 961 -1376 111 -129 105 -118 207 -419 117 -347 215 -715 269
-1005 87 -472 78 -824 -24 -891 -24 -15 -33 -16 -74 -5 -231 61 -660 603
-1012 1276 l-68 130 -21 150 c-166 1182 -475 2276 -795 2810 l-47 80 52 100
c66 125 90 165 98 165 4 0 15 -6 24 -13z m-2576 -285 c-213 -420 -558 -914
-987 -1412 -146 -170 -163 -184 -114 -95 376 684 708 1168 1073 1563 52 56 97
100 99 98 3 -2 -30 -72 -71 -154z m1441 -116 c-90 -372 -120 -667 -120 -1176
0 -354 9 -541 44 -925 34 -381 109 -920 173 -1257 l23 -120 -34 -202 c-195
-1169 -541 -2167 -849 -2456 -107 -99 -165 -102 -245 -11 -141 160 -246 571
-301 1181 -19 207 -16 1180 4 1430 l14 185 91 200 c415 913 711 1809 827 2500
43 255 59 418 60 649 l2 219 28 24 28 24 130 -123 c102 -96 129 -126 125 -142z
m-677 251 c0 -2 -23 -42 -51 -88 -381 -630 -717 -1896 -859 -3237 l-19 -183
-96 -186 c-415 -802 -863 -1460 -1275 -1874 -226 -228 -365 -328 -510 -365
-139 -35 -223 41 -264 239 -106 514 146 1645 628 2821 l65 157 218 222 c615
626 1113 1249 1463 1832 92 154 253 465 290 561 l24 62 156 17 c85 9 160 18
165 20 14 5 65 6 65 2z m2342 -424 c123 -179 209 -317 320 -516 92 -166 262
-497 254 -497 -10 0 -299 443 -378 580 -130 222 -309 570 -294 570 2 0 46 -62
98 -137z m-2302 -281 c-53 -337 -152 -730 -287 -1147 -58 -179 -179 -516 -207
-575 l-16 -35 6 50 c11 100 124 645 178 855 92 362 195 682 302 937 48 114 53
97 24 -85z m1318 62 c2 -16 19 -108 38 -204 131 -670 401 -1459 763 -2229 l91
-195 20 -195 c35 -353 41 -461 47 -866 7 -514 -11 -795 -68 -1085 -53 -267
-142 -440 -225 -440 -41 0 -95 34 -156 98 -241 253 -516 943 -713 1793 -64
275 -62 229 -21 579 96 828 119 1675 60 2290 -14 147 -49 407 -59 440 -4 12 8
15 68 15 48 0 82 5 102 16 39 22 49 19 53 -17z m428 -433 c30 -90 77 -243 105
-340 78 -275 187 -736 177 -746 -9 -9 -165 432 -239 673 -84 277 -201 758
-198 815 1 20 96 -227 155 -402z m-882 99 c41 -372 53 -778 36 -1221 -6 -179
-15 -341 -19 -360 -7 -34 -38 258 -61 576 -26 354 -22 1010 7 1190 l7 40 7
-40 c4 -22 14 -105 23 -185z"/></g></g></g></g>
</svg>
